<?xml version="1.0" encoding="UTF-8"?>
<svg id="Layer_1" data-name="Layer 1" xmlns="http://www.w3.org/2000/svg" viewBox="0 0 250 250">
  <defs>
    <style>
      .cls-1 {
        fill: #00dce4;
      }

      .cls-1, .cls-2 {
        stroke-width: 0px;
      }
    </style>
  </defs>
  <g>
    <path class="cls-2" d="M30.65,113.53c0,3.74-2.04,5.78-5.78,5.78h-12.24c-3.74,0-5.78-2.04-5.78-5.78V29.89c0-3.74,2.04-5.78,5.78-5.78h12.24c3.74,0,5.78,2.04,5.78,5.78v83.64Z"/>
    <path class="cls-2" d="M113.38,101.63c0,3.74-2.04,5.78-5.78,5.78h-.34c-3.74,0-5.78,2.04-5.78,5.78v.34c0,3.74-2.04,5.78-5.78,5.78h-36.04c-3.74,0-5.78-2.04-5.78-5.78v-.34c0-3.74-2.04-5.78-5.78-5.78h-.34c-3.74,0-5.78-2.04-5.78-5.78v-36.04c0-3.74,2.04-5.78,5.78-5.78h.34c3.74,0,5.78-2.04,5.78-5.78v-.34c0-3.74,2.04-5.78,5.78-5.78h36.04c3.74,0,5.78,2.04,5.78,5.78v.34c0,3.74,2.04,5.78,5.78,5.78h.34c3.74,0,5.78,2.04,5.78,5.78v36.04ZM77.85,95.51c7.48,0,11.73-4.25,11.73-11.73v-.34c0-7.48-4.25-11.73-11.73-11.73h-.34c-7.48,0-11.73,4.25-11.73,11.73v.34c0,7.48,4.25,11.73,11.73,11.73h.34Z"/>
    <path class="cls-2" d="M172.31,125.09c0-3.74-2.04-5.78-5.78-5.78h-24.14c-3.74,0-5.78-2.04-5.78-5.78v-.34c0-3.74-2.04-5.78-5.78-5.78h-.34c-3.74,0-5.78-2.04-5.78-5.78v-36.04c0-3.74,2.04-5.78,5.78-5.78h.34c3.74,0,5.78-2.04,5.78-5.78v-.34c0-3.74,2.04-5.78,5.78-5.78h24.14c3.74,0,5.78,2.04,5.78,5.78v.34c0,3.74,2.04,5.78,5.78,5.78h.34c3.74,0,5.78-2.04,5.78-5.78v-.34c0-3.74,2.04-5.78,5.78-5.78h.34c3.74,0,5.78,2.04,5.78,5.78v83.64c0,3.74-2.04,5.78-5.78,5.78h-12.24c-3.74,0-5.78-2.04-5.78-5.78v-12.24ZM160.58,95.51c7.48,0,11.73-4.25,11.73-11.73v-.34c0-7.48-4.25-11.73-11.73-11.73h-.34c-7.48,0-11.73,4.25-11.73,11.73v.34c0,7.48,4.25,11.73,11.73,11.73h.34Z"/>
    <path class="cls-2" d="M95.7,130.69c3.74,0,5.78,2.04,5.78,5.78v.34c0,3.74,2.04,5.78,5.78,5.78h.34c3.74,0,5.78,2.04,5.78,5.78v47.94c0,3.74-2.04,5.78-5.78,5.78h-47.94c-3.74,0-5.78-2.04-5.78-5.78v-.34c0-3.74-2.04-5.78-5.78-5.78h-.34c-3.74,0-5.78-2.04-5.78-5.78v-.34c0-3.74,2.04-5.78,5.78-5.78h.34c3.74,0,5.78-2.04,5.78-5.78v-.34c0-3.74,2.04-5.78,5.78-5.78h36.04c3.74,0,5.78-2.04,5.78-5.78v-.34c0-3.74-2.04-5.78-5.78-5.78h-36.04c-3.74,0-5.78-2.04-5.78-5.78v-12.24c0-3.74,2.04-5.78,5.78-5.78h36.04ZM83.8,190.19c3.74,0,5.78-2.04,5.78-5.78v-.34c0-3.74-2.04-5.78-5.78-5.78h-12.24c-3.74,0-5.78,2.04-5.78,5.78v.34c0,3.74,2.04,5.78,5.78,5.78h12.24Z"/>
    <path class="cls-2" d="M243.15,172.51c0,3.74-2.04,5.78-5.78,5.78h-6.29c-7.48,0-11.73,4.25-11.73,11.73v30.09c0,3.74-2.04,5.78-5.78,5.78h-12.24c-3.74,0-5.78-2.04-5.78-5.78v-59.84c0-3.74,2.04-5.78,5.78-5.78h.34c3.74,0,5.78,2.04,5.78,5.78v.34c0,3.74,2.04,5.78,5.78,5.78h.34c3.74,0,5.78-2.04,5.78-5.78v-.34c0-3.74,2.04-5.78,5.78-5.78h12.24c3.74,0,5.78,2.04,5.78,5.78v12.24Z"/>
    <path class="cls-2" d="M178.44,154.49h-12.24c-3.74,0-5.78-2.04-5.78-5.78v-12.24c0-3.74-2.04-5.78-5.78-5.78h-12.24c-3.74,0-5.78,2.04-5.78,5.78v.34c0,3.74-2.04,5.78-5.78,5.78h-.34c-3.74,0-5.78,2.04-5.78,5.78v24.14c0,3.74,2.04,5.78,5.78,5.78h.34c3.74,0,5.78,2.04,5.78,5.78v24.14c0,3.74,2.04,5.78,5.78,5.78h.34c3.74,0,5.78,2.04,5.78,5.78v.34c0,3.74,2.04,5.78,5.78,5.78h24.14c3.74,0,5.78-2.04,5.78-5.78v-12.24c0-3.74-2.04-5.78-5.78-5.78h-6.29c-7.48,0-11.73-4.25-11.73-11.73v-.34c0-6.29,3-10.29,8.41-11.41,1.02-.2,2.13-.32,3.32-.32h6.29c3.74,0,5.78-2.04,5.78-5.78v-12.24c0-3.74-2.04-5.78-5.78-5.78Z"/>
  </g>
  <circle class="cls-1" cx="119.03" cy="125.02" r="11.29"/>
</svg>