<?xml version="1.0" encoding="UTF-8"?>
<svg id="Layer_1" data-name="Layer 1" xmlns="http://www.w3.org/2000/svg" viewBox="0 0 250 250">
  <defs>
    <style>
      .cls-1 {
        fill: #00dce4;
      }

      .cls-1, .cls-2 {
        stroke-width: 0px;
      }

      .cls-2 {
        fill: #fff;
      }
    </style>
  </defs>
  <g>
    <path class="cls-2" d="M62.09,117.35c0,2.49-1.36,3.85-3.85,3.85h-8.16c-2.49,0-3.85-1.36-3.85-3.85v-55.77c0-2.49,1.36-3.85,3.85-3.85h8.16c2.49,0,3.85,1.36,3.85,3.85v55.77Z"/>
    <path class="cls-2" d="M117.25,109.42c0,2.49-1.36,3.85-3.85,3.85h-.23c-2.49,0-3.85,1.36-3.85,3.85v.23c0,2.49-1.36,3.85-3.85,3.85h-24.03c-2.49,0-3.85-1.36-3.85-3.85v-.23c0-2.49-1.36-3.85-3.85-3.85h-.23c-2.49,0-3.85-1.36-3.85-3.85v-24.03c0-2.49,1.36-3.85,3.85-3.85h.23c2.49,0,3.85-1.36,3.85-3.85v-.23c0-2.49,1.36-3.85,3.85-3.85h24.03c2.49,0,3.85,1.36,3.85,3.85v.23c0,2.49,1.36,3.85,3.85,3.85h.23c2.49,0,3.85,1.36,3.85,3.85v24.03ZM93.56,105.34c4.99,0,7.82-2.83,7.82-7.82v-.23c0-4.99-2.83-7.82-7.82-7.82h-.23c-4.99,0-7.82,2.83-7.82,7.82v.23c0,4.99,2.83,7.82,7.82,7.82h.23Z"/>
    <path class="cls-2" d="M105.46,128.79c2.49,0,3.85,1.36,3.85,3.85v.23c0,2.49,1.36,3.85,3.85,3.85h.23c2.49,0,3.85,1.36,3.85,3.85v31.97c0,2.49-1.36,3.85-3.85,3.85h-31.97c-2.49,0-3.85-1.36-3.85-3.85v-.23c0-2.49-1.36-3.85-3.85-3.85h-.23c-2.49,0-3.85-1.36-3.85-3.85v-.23c0-2.49,1.36-3.85,3.85-3.85h.23c2.49,0,3.85-1.36,3.85-3.85v-.23c0-2.49,1.36-3.85,3.85-3.85h24.03c2.49,0,3.85-1.36,3.85-3.85v-.23c0-2.49-1.36-3.85-3.85-3.85h-24.03c-2.49,0-3.85-1.36-3.85-3.85v-8.16c0-2.49,1.36-3.85,3.85-3.85h24.03ZM97.53,168.47c2.49,0,3.85-1.36,3.85-3.85v-.23c0-2.49-1.36-3.85-3.85-3.85h-8.16c-2.49,0-3.85,1.36-3.85,3.85v.23c0,2.49,1.36,3.85,3.85,3.85h8.16Z"/>
    <path class="cls-2" d="M156.55,125.06c0-2.49-1.36-3.85-3.85-3.85h-16.1c-2.49,0-3.85-1.36-3.85-3.85v-.23c0-2.49-1.36-3.85-3.85-3.85h-.23c-2.49,0-3.85-1.36-3.85-3.85v-24.03c0-2.49,1.36-3.85,3.85-3.85h.23c2.49,0,3.85-1.36,3.85-3.85v-.23c0-2.49,1.36-3.85,3.85-3.85h16.1c2.49,0,3.85,1.36,3.85,3.85v.23c0,2.49,1.36,3.85,3.85,3.85h.23c2.49,0,3.85-1.36,3.85-3.85v-.23c0-2.49,1.36-3.85,3.85-3.85h.23c2.49,0,3.85,1.36,3.85,3.85v55.77c0,2.49-1.36,3.85-3.85,3.85h-8.16c-2.49,0-3.85-1.36-3.85-3.85v-8.16ZM148.73,105.34c4.99,0,7.82-2.83,7.82-7.82v-.23c0-4.99-2.83-7.82-7.82-7.82h-.23c-4.99,0-7.82,2.83-7.82,7.82v.23c0,4.99,2.83,7.82,7.82,7.82h.23ZM203.78,156.68c0,2.49-1.36,3.85-3.85,3.85h-4.19c-4.99,0-7.82,2.83-7.82,7.82v20.06c0,2.49-1.36,3.85-3.85,3.85h-8.16c-2.49,0-3.85-1.36-3.85-3.85v-39.9c0-2.49,1.36-3.85,3.85-3.85h.23c2.49,0,3.85,1.36,3.85,3.85v.23c0,2.49,1.36,3.85,3.86,3.85h.23c2.49,0,3.85-1.36,3.85-3.85v-.23c0-2.49,1.36-3.85,3.85-3.85h8.16c2.49,0,3.85,1.36,3.85,3.85v8.16Z"/>
    <path class="cls-2" d="M160.63,144.66h-8.16c-2.49,0-3.85-1.36-3.85-3.85v-8.16c0-2.49-1.36-3.85-3.85-3.85h-8.16c-2.49,0-3.85,1.36-3.85,3.85v.23c0,2.49-1.36,3.85-3.85,3.85h-.23c-2.49,0-3.85,1.36-3.85,3.85v16.1c0,2.49,1.36,3.85,3.85,3.85h.23c2.49,0,3.85,1.36,3.85,3.85v16.1c0,2.49,1.36,3.85,3.85,3.85h.23c2.49,0,3.85,1.36,3.85,3.85v.23c0,2.49,1.36,3.85,3.85,3.85h16.1c2.49,0,3.85-1.36,3.85-3.85v-8.16c0-2.49-1.36-3.85-3.85-3.85h-4.19c-4.99,0-7.82-2.83-7.82-7.82v-.23c0-4.19,2-6.86,5.61-7.61.68-.14,1.42-.21,2.21-.21h4.19c2.49,0,3.85-1.36,3.85-3.85v-8.16c0-2.49-1.36-3.85-3.85-3.85Z"/>
  </g>
  <circle class="cls-1" cx="121.02" cy="125.01" r="7.53"/>
</svg>